<?xml version="1.0" encoding="UTF-8"?><svg id="Layer_1" xmlns="http://www.w3.org/2000/svg" viewBox="0 0 2796.34 554.69"><defs><style>.cls-1{fill:#fa7598;}.cls-2{fill:#010101;}.cls-3{fill:#00b2e3;}.cls-4{fill:#ffe800;}.cls-5{fill:#f45197;}.cls-6{fill:#c42033;}.cls-7{fill:#65baaf;}.cls-8{fill:#ae841f;}.cls-9{fill:#d7c724;}.cls-10{fill:#adadaf;}.cls-11{fill:#dae343;}.cls-12{fill:#e1d355;}.cls-13{fill:#231f20;}.cls-14{fill:#3f738d;}.cls-15{fill:#93d500;}.cls-16{fill:#867874;}.cls-17{fill:#2d2a26;}.cls-18{fill:#38d430;}.cls-19{fill:#76777a;}.cls-20{fill:#76777b;}.cls-21{fill:#7b6756;}</style></defs><g><path class="cls-10" d="M2735.42,219.97c-.29-.2-.62-.2-.95-.19,1.14-11.27-2.57-6.28-9.37-4.07h.04s-.09,.02-.14,.03l.07-.02c-6.2,2.62-13.09,.66-18.76,4.22-4.45-1.05-8.3,.21-12.29,2.34-.23-.21-.56-.22-.85-.16l.06-.02c-4.5,.55-3.95-6.58-7.9-6.75,3.45-1.87,2.97-5.89-.2-7.77-2.14-.58-4.01-1.62-4.94-3.79-.53-2.39-3.04-2.38-4.48-3.83-2.33-1.55-2.51-7.77-5.74-6.86-2.15-.22-4.46-5.97-5.98-2.11,.01-.05,.03-.09,.04-.14-.07,.22-.14,.43-.22,.64-2.36-5.28-2.87-12.06-7.34-16.02,.04,.03,.07,.07,.11,.1-10.05-6.77-4.17-9.42-7.47-18.23,7.48,.51-8.33-13.41-9.2-15.36-.87-1.56,1.03-5.01-1.77-5.04-2.7-2.82-2.96-7.06-5.72-9.97,.03,.04,.05,.08,.08,.12-.54-2.58-3.77-3.23-4.11-5.52,.89-3.05-2.98-4.09-3.77-6.56,1.74-1.11,.34-2.91-.66-4,.02,.02,.04,.05,.06,.07-1.54-1.59-2.6-3.47-3.15-5.62v.02s-.02-.06-.03-.1c-4.61-8.3-1.79-13.93-13.82-12.79-3.56,.5-6.15,5.46-9.99,3.37l.06,.03c-3.1-1.91-6.61-1.19-9.98-1.45-1.64-1.11-3.28-2.05-5.34-1.51,.05-.01,.09-.02,.14-.03-3.78-.52-6.63-4.28-10.95-4.08h.02l-.15-.02h0s-.05,0-.08-.01h.03s-.09-.01-.13-.02h.01c-.87-.17-1.76-.31-2.62-.57-3-6.42-13-4.06-18.02-1.38-6.44,4.12,1.32,10.38-4.25,12.62-3.83,1.99-4.75-4.08-8.12-4.2-2.17,0-3.97-1.39-6.07-1.69-1.97-.27-5.02,.21-6.19-1.69-.36-1.86-.09-4.19-1.95-5.34-4.82-1.53-9.44-4.67-14.41-5.16-4.36,.48-7.03-3.41-10.06-5.72,1.59-2.58,7.47-9.33,2.72-11.01,1.02-1.49,3.06-2.26,3.35-4.22,0-2.6-1.36-7.03-3.98-3.14,.34-3.27-5.01-2.08-7.14-2.68-2.36,.47-4.09,3.01-6.7,2.68-1.5-.94-3.28-.35-4.86-1.1l.07,.03s-.09-.03-.14-.05h.04c-2.69-1.79-4.84,.77-7.45,1.37,.05-.01,.09-.03,.14-.04-.07,.02-.14,.04-.21,.06l.05-.02c-4.07,.82-7.9-2.51-12.19-2.23h.14c-7.56-.96-13.54,3.98-20.41,5.9-3.55-.64-6.65,1.34-10.17,1.21-1.85,.02-3.35-1.39-5.15-.21l.13-.05c-6.7,1.71-10.28-8.64-15.45,.77h0c-1.32,1.98-2.46,4.13-3.82,6.06-3.43,.76-6.43,2.97-9.8,4.15-3.6,1.14-4.44,4.96-7.08,7.19-3.67,1.55-4.15,4.99-5.29,8.34-2.95,6.6-9.41,12.84-16.93,11.51-4.67,1.35-6.03,6.69-9.45,9.62-2.63,.98-3.65,3.53-5.45,5.47-3.12,1.8-4.74,4.95-7.17,7.51-3.14,3.47-4.31,9.57-9.32,10.8-.82,.18-1.4,.95-1.23,1.79,.01,3.05-1.9,5.62-2.57,8.49-.61,4.87,6.48,4.13,1.01,9.61-2.48,5.36,4.53,4.08-1.61,14.25v-.03c-1.02,2.6-2.91,4.84-3.6,7.57,.36,2.55-.44,5-2.6,6.58-1.91,1.52,.21,3.8,.59,5.61,.09,2.6,2.06,4.28,4.26,5.34-2.11,.27-5.56,.32-4.67,3.39,.22,1.92,.2,3.84,2.06,4.88l-.03-.07c.66,1.78,1.99,3.84,4.14,2.84-1.42,.89-1.19,2.6,.09,3.49h0l.1,.09-.03-.03c.06,.05,.11,.11,.17,.16l-.02-.02c7.29,4.95,3.23,2.68,7.08,8.76,1.51,1.78,5.02,.56,4.11,3.58,.01,.55,.43,.92,.7,1.35-1.02,2.92-1.79,6.89,1.31,8.76,2.31,2.13,3.75,5.82,6.57,7.09-.03,0-.06,0-.09-.01,2.07-.11,1.64,1.77,2.61,2.93,5.13,2.32,8.97,6.07,12.67,10.27-.04-.04-.07-.07-.11-.11,1.85,1.38,3.46,4.51,5.9,4.46,6.01,.65,10.72-3.57,16.5-3.27,6.95,.18,13.88-.04,20.32,2.82,5.96-.91,11.62-4.41,16.75-7.6,.8,2.99,4.31-.16,6.23-.29,3.7-1.45,9.12,.69,11.61-3.19,.13,.05,.27,.09,.4,.14-.11,.89,.69,1.43,1.47,1.58,8.23,.3,4.57,11.48,11.86,13.15,2.39,.61,4.58-.17,6.82-.87,2.13,.86,5.97,.96,6.99-1.55,2.26,.57,2.67,2.53,3.68,4.24,2.04,1.52,5.15,2.44,5.22,5.49,0-.03,0-.06,0-.08,.78,5.58-5.51,9.73-4.28,12.55,3.44,2.18-2.04,2.62-.18,8.81-12.2-6.15,5.3,20.21,10.22,21.15,1.8,1.57,3.49,3.47,3.15,6.01,.7,1.29,2.23,2.03,2.83,3.46,.61,1.59,.7,3.32,2.16,4.44-.03-.04-.06-.07-.1-.11,.18,.2,.36,.41,.53,.62-2.31,.98-.99,3.2,.45,4.3,1.79,3.75,4.46,7.93,4.74,12.01-8.4,1.6,.68,4.93-.32,7.3,.02-.04,.04-.09,.06-.13-1.25,3.89,1.91,7.88,1.8,11.89,0-.05-.01-.09-.02-.14,1.88,5.99-6.25,3.66-4.28,8.95-.01-.04-.02-.09-.03-.14,.88,3.23-4.59,4.77-3.12,8.21-3.95,5.87-1.41,1.86-1.9,8.18-3.88,4.9-1.72,13.02,1.3,18.27l-.02-.04c2.62,4.49,5.35,9.17,8.72,13.04,.81,4.57,1.99,9.26,5.2,12.75-1.52,4.28-1.23,10.44,2.52,13.51-.51,2.96-1.02,7.09,1.75,9.16-4.19,3.68,10.49,16.75,12.26,21.59,2.68,4.46,1.74,10.09,4.25,14.68h0c.1,.2,.19,.41,.28,.62-3.04-.09,.42,10.6,1.55,11.91,3.33-.15,6.15,1.88,9.46,1.84,2.14,.05,3.7-1.5,5.61-2.14,1.86,.32,3.69,.18,4.96-1.43,.02,0,.04,.01,.06,.01h-.04c2.46,.18,5.72,2.37,7.18-.72,2.43,1.82,6.08,3.7,8.41,.56,1.88,1.36,4.96,2.34,6.12-.3,8.65-.66,15.15-8.01,21.12-13.58,3.94-2.55,8.06-6.08,9.73-10.52l-.04,.04,.05-.05-.03,.03s.06-.07,.1-.11l-.04,.04c.32-.43,.78-.68,1.26-.9-.04,.02-.08,.04-.12,.06,4.06-1.17,4.89-5.7,5.71-9.31,3.14,7.36,6.51-12.77,2.81-13.52,2.51-.51,3.98-3.34,6.48-3.39,4.3,.09,11.29-3.16,10.04-8.25,2.68-.49,5.56-14.17,1.09-11.67-.68-2.5,.99-6.63-1.51-8.15-.61-2.45,1.71-4.01,3.18-5.52,2.1-3.68,7.28-4.52,10.11-7.82-.02,.02-.04,.04-.06,.06,2.05-1.43,3.76-3.3,5.87-4.6h-.02c2.76-2.19,6.88-1.27,9.33-3.93,1.24-.96,1.76-2.58,3.02-3.47,1.23-.14,2.05-1.2,2.05-2.41v.09c.88-1.57,4.67-3.42,2.13-5.36,2.49-.74,2.44-2.73,1.51-4.75,.27-.28,.41-.67,.35-1.06v.07c.11-1.62-.48-3.34,.12-4.9l-.03,.07c.82-1.28,.45-2.71,.42-4.12,.3-1.59,1.31-3.09,.77-4.8-1.54-2.52-.15-4.56,.52-7.09v.03c-1.58-10.53-8.2-3.14-6.62-23.94,2.2-3.48-1.98-5.57-1.07-9.05,1.05-1.96,2.5-3.34,2.24-5.79,2.75-.85,1.2-4.24,2.94-5.77-.03,.03-.07,.07-.1,.1,1.41-1.33,1.23-3.57,2.2-5.18,1.53-2.37,4.59-2.91,4.55-6.22,1.1,0,2.59,.44,2.98-1-.02,.04-.04,.09-.05,.13,3.42-5.13,7.51-9.86,11.85-14.24-.03,.03-.07,.06-.1,.1,.04-.04,.07-.07,.11-.11l-.03,.03s.07-.06,.1-.1l-.03,.03c5.59-6.22,14.37-8.23,19.85-14.46,4.58-5.99,6.91-13.82,13.93-17.65,3.39-3.23-.87-5.21,2.99-8.93,.71-7.32,7.04-12.55,8.58-19.83h0c.35-1.76,3.59-3.59,1.81-5.37Z"/><g><polygon class="cls-5" points="2523.08 189.21 2527.56 180.97 2489.15 180.97 2493.63 189.21 2523.08 189.21"/><polygon class="cls-1" points="2493.63 189.21 2508.35 216.3 2523.08 189.21 2493.63 189.21"/><polygon class="cls-12" points="2527.22 228.59 2546.99 228.59 2517.16 283.46 2507.31 265.22 2527.22 228.59"/><polygon class="cls-17" points="2497.43 283.41 2507.31 265.22 2517.16 283.46 2497.43 283.41"/><polygon class="cls-14" points="2517.16 283.46 2562.15 283.46 2552.91 266.47 2567.43 266.47 2546.99 228.59 2517.16 283.46"/><polygon class="cls-3" points="2562.15 283.46 2569.37 296.75 2546.89 337.77 2517.16 283.46 2562.15 283.46"/><polygon class="cls-16" points="2562.15 283.46 2569.37 296.75 2576.64 283.41 2562.15 283.46"/><polygon class="cls-16" points="2567.43 266.47 2585.65 266.47 2576.54 283.41 2567.43 266.47"/><polygon class="cls-6" points="2569.37 296.75 2580.15 316.58 2601.65 276.89 2595.99 266.47 2585.65 266.47 2569.37 296.75"/><polygon class="cls-3" points="2546.99 228.59 2567.43 266.47 2585.65 266.47 2590.82 256.96 2575.39 228.59 2546.99 228.59"/><polygon class="cls-7" points="2575.39 228.59 2606.24 228.59 2590.82 256.96 2575.39 228.59"/><polygon class="cls-8" points="2601.65 276.89 2607.31 266.47 2595.99 266.47 2601.65 276.89"/><polygon class="cls-11" points="2553.99 189.21 2568.4 189.21 2561.19 202.47 2553.99 189.21"/><polygon class="cls-15" points="2595.99 266.47 2590.82 256.96 2606.24 228.59 2575.39 228.59 2561.19 202.47 2568.4 189.21 2630.42 189.21 2611.22 224.53 2630.11 224.53 2607.31 266.47 2595.99 266.47"/><polygon class="cls-15" points="2639.87 206.59 2630.42 189.21 2649.32 189.21 2639.87 206.59"/><polygon class="cls-18" points="2639.87 206.59 2630.42 189.21 2611.22 224.53 2630.11 224.53 2639.87 206.59"/><polygon class="cls-19" points="2639.87 206.59 2649.62 224.53 2630.11 224.53 2639.87 206.59"/><polygon class="cls-4" points="2465.93 189.21 2493.63 189.21 2508.35 216.3 2523.08 189.21 2553.99 189.21 2561.19 202.47 2546.99 228.59 2537.03 210.56 2527.22 228.59 2487.53 228.59 2465.93 189.21"/><polygon class="cls-9" points="2537.03 210.56 2546.99 228.59 2527.22 228.59 2537.03 210.56"/><polygon class="cls-11" points="2507.31 265.22 2487.53 228.59 2527.22 228.59 2507.31 265.22"/><polygon class="cls-21" points="2552.91 266.47 2567.43 266.47 2576.54 283.41 2562.15 283.46 2552.91 266.47"/><polygon class="cls-10" points="2561.19 202.47 2575.39 228.59 2546.99 228.59 2561.19 202.47"/></g><path class="cls-2" d="M2722.62,218.72s-.03,0-.05,.01h.05Z"/><path class="cls-2" d="M2663.85,345.93s0,.05,.01,.08c0-.03,0-.05-.01-.08Z"/><path class="cls-2" d="M2666.34,315.34v0Z"/><path class="cls-2" d="M2662.78,327.9s.05,.07,.08,.11c-.03-.04-.06-.07-.08-.11Z"/><path class="cls-2" d="M2666.38,309.65s.03-.09,.04-.14c-.01,.05-.03,.09-.04,.14Z"/><path class="cls-2" d="M2668.01,376.16s0,.1,.01,.14c0-.05,0-.1-.01-.14Z"/><path class="cls-2" d="M2668.24,372.9s-.04,.09-.06,.13c.02-.04,.04-.09,.06-.13Z"/><path class="cls-2" d="M2669.42,366.02s-.01,.06-.02,.09l.02-.09Z"/><path class="cls-2" d="M2635.85,406.16l.04-.02-.04,.02Z"/><path class="cls-2" d="M2645.6,401.99s-.08,.06-.12,.09c.04-.03,.08-.06,.12-.09Z"/><path class="cls-2" d="M2529.27,483.1s-.02-.09-.04-.13c.01,.04,.03,.09,.04,.13Z"/><path class="cls-2" d="M2509.09,435.31h0Z"/><path class="cls-2" d="M2495.61,400.97l-.02-.04,.02,.04Z"/><path class="cls-2" d="M2481.21,281s-.02,.03-.03,.04l.03-.04Z"/><path class="cls-2" d="M2408.97,250.98h0Z"/><path class="cls-2" d="M2333.46,167.51v0Z"/><path class="cls-2" d="M2336.83,142.41v0Z"/><path class="cls-2" d="M2383.28,96.74s-.05,.04-.07,.07l.07-.07Z"/><path class="cls-2" d="M2517.23,86.37s-.09-.03-.14-.05c.05,.01,.09,.03,.14,.05Z"/><path class="cls-2" d="M2525.68,90.41c0,.05,0,.1,.01,.15,0-.05,0-.1-.01-.15Z"/><path class="cls-2" d="M2675.63,202.16h0Z"/><path class="cls-2" d="M2690.84,390.81h0Z"/><path class="cls-10" d="M2722.1,379.31c-.9,3.31,.04,7.29-1.48,10.29-.89,.25-1.89,.81-1.79,1.88v-.05c-1.96,4.35-3.91,8.54-5.15,13.23,.01-.03,.02-.06,.04-.09-2.47,6.28-6.49,11.86-8.57,18.28-.24,3.28-2.3,5.27-4.19,7.69-1.25,5.93-3.83,11.07-6.72,16.41-3.83-.17-7.66,3.48-11.3,1.44-4.78-5.48-2.73-14.18-3.84-20.87,6.29-8.65,10.86-17.63,6.36-28.45,2.59-.82,3.39-3.51,3.59-5.95,.78,.04,1.59,.04,2.35-.17-.04,0-.07,.01-.11,.01,.28-.04,.55-.13,.74-.34,.09-.03,.17-.07,.25-.11-.02,.01-.05,.03-.07,.04,1.78-.73,3.37-3.29,5.41-2.05l-.08-.03c1.04,.46,2.76,1.22,3.42-.15,5.8,.55,3.56-2.22,4.2-6.02,1.96,2.47,6.04-.72,4.28-3.33,1.72-.08,1.92-1.93,2.48-3.17,5.85-.71,3.83-8.76,6.65-9.43-.19,3.13,2.71,4.89,3.63,7.53v-.03s.01,.1,.02,.15v0c.17,1.1,0,2.21-.11,3.3Z"/></g><g><g><path class="cls-20" d="M302.05,375.96h17.16c7.82,0,13.49,1.11,17.03,3.34,3.53,2.23,5.3,5.76,5.3,10.61,0,3.29-.77,6-2.32,8.11-1.55,2.11-3.6,3.38-6.17,3.81v.38c3.49,.78,6.02,2.24,7.56,4.37,1.55,2.14,2.32,4.98,2.32,8.52,0,5.03-1.82,8.95-5.45,11.77s-8.57,4.22-14.8,4.22h-20.63v-55.13Zm11.69,21.83h6.79c3.17,0,5.46-.49,6.88-1.47,1.42-.98,2.13-2.6,2.13-4.86,0-2.11-.77-3.63-2.32-4.54-1.55-.92-3.99-1.38-7.33-1.38h-6.15v12.26Zm0,9.28v14.37h7.62c3.22,0,5.59-.62,7.13-1.85,1.53-1.23,2.3-3.12,2.3-5.66,0-4.58-3.27-6.86-9.8-6.86h-7.24Z"/><path class="cls-20" d="M390.4,398.67l11.5-22.7h12.59l-18.29,33.67v21.46h-11.61v-21.08l-18.29-34.05h12.67l11.43,22.7Z"/><path class="cls-20" d="M511.24,384.9c-4.4,0-7.81,1.65-10.22,4.96s-3.62,7.91-3.62,13.82c0,12.29,4.61,18.44,13.84,18.44,3.87,0,8.56-.97,14.06-2.9v9.8c-4.52,1.88-9.58,2.83-15.16,2.83-8.02,0-14.15-2.43-18.4-7.3s-6.37-11.85-6.37-20.95c0-5.73,1.04-10.75,3.13-15.06,2.09-4.31,5.09-7.62,8.99-9.92,3.91-2.3,8.49-3.45,13.74-3.45s10.73,1.29,16.14,3.88l-3.77,9.5c-2.06-.98-4.14-1.84-6.22-2.56-2.09-.73-4.14-1.09-6.15-1.09Z"/><path class="cls-20" d="M593.95,431.09l-4-13.12h-20.1l-4,13.12h-12.59l19.46-55.35h14.29l19.53,55.35h-12.59Zm-6.79-22.93c-3.7-11.89-5.78-18.61-6.24-20.18-.47-1.56-.8-2.79-1-3.69-.83,3.22-3.2,11.17-7.13,23.87h14.37Z"/><path class="cls-20" d="M648.34,409.94v21.15h-11.69v-55.13h16.07c7.49,0,13.03,1.36,16.63,4.09,3.6,2.73,5.39,6.87,5.39,12.43,0,3.24-.89,6.13-2.68,8.65-1.78,2.53-4.31,4.51-7.58,5.94,8.3,12.39,13.7,20.4,16.22,24.02h-12.97l-13.16-21.15h-6.22Zm0-9.5h3.77c3.7,0,6.42-.62,8.18-1.85,1.76-1.23,2.64-3.17,2.64-5.81s-.9-4.48-2.7-5.58c-1.8-1.11-4.58-1.66-8.35-1.66h-3.54v14.9Z"/><path class="cls-20" d="M759.71,431.09h-14.86l-23.98-41.7h-.34c.48,7.37,.72,12.62,.72,15.76v25.94h-10.45v-55.13h14.75l23.94,41.29h.26c-.38-7.16-.57-12.23-.57-15.2v-26.09h10.52v55.13Z"/><path class="cls-20" d="M828.5,431.09h-31.75v-55.13h31.75v9.58h-20.06v12.11h18.66v9.58h-18.66v14.22h20.06v9.65Z"/><path class="cls-20" d="M884.1,400.14h21.87v28.58c-3.54,1.16-6.88,1.97-10.01,2.43-3.13,.47-6.33,.7-9.6,.7-8.32,0-14.67-2.44-19.06-7.33-4.39-4.89-6.58-11.91-6.58-21.06s2.55-15.84,7.64-20.81c5.09-4.98,12.15-7.47,21.17-7.47,5.66,0,11.11,1.13,16.37,3.39l-3.88,9.35c-4.02-2.01-8.21-3.02-12.56-3.02-5.05,0-9.1,1.7-12.14,5.09-3.04,3.39-4.56,7.96-4.56,13.69s1.23,10.55,3.68,13.71,6.02,4.73,10.69,4.73c2.44,0,4.91-.25,7.43-.76v-11.5h-10.44v-9.73Z"/><path class="cls-20" d="M942.26,431.09v-55.13h11.69v55.13h-11.69Z"/><path class="cls-20" d="M1022.74,431.09h-31.75v-55.13h31.75v9.58h-20.06v12.11h18.66v9.58h-18.66v14.22h20.06v9.65Z"/><path class="cls-20" d="M1123.98,431.09l-13.27-43.25h-.34c.48,8.8,.72,14.67,.72,17.61v25.64h-10.45v-55.13h15.91l13.05,42.16h.23l13.84-42.16h15.91v55.13h-10.9v-26.09c0-1.23,.02-2.65,.06-4.26,.04-1.61,.21-5.88,.51-12.82h-.34l-14.22,43.18h-10.71Z"/><path class="cls-20" d="M1228.37,431.09h-31.75v-55.13h31.75v9.58h-20.06v12.11h18.67v9.58h-18.67v14.22h20.06v9.65Z"/><path class="cls-20" d="M1263.04,431.09v-55.13h11.69v45.48h22.36v9.65h-34.05Z"/><path class="cls-20" d="M1329.84,431.09v-55.13h11.69v45.48h22.36v9.65h-34.05Z"/><path class="cls-20" d="M1446.67,403.45c0,9.13-2.26,16.14-6.79,21.04-4.53,4.9-11.01,7.35-19.46,7.35s-14.93-2.45-19.46-7.35c-4.53-4.9-6.79-11.94-6.79-21.12s2.27-16.18,6.8-21.02c4.54-4.84,11.04-7.26,19.51-7.26s14.95,2.44,19.44,7.31c4.49,4.88,6.73,11.89,6.73,21.04Zm-40.23,0c0,6.16,1.17,10.8,3.51,13.91,2.34,3.12,5.83,4.67,10.48,4.67,9.33,0,13.99-6.2,13.99-18.59s-4.64-18.63-13.92-18.63c-4.65,0-8.16,1.57-10.52,4.7-2.36,3.13-3.54,7.78-3.54,13.93Z"/><path class="cls-20" d="M1530.17,431.09h-14.86l-23.98-41.7h-.34c.48,7.37,.72,12.62,.72,15.76v25.94h-10.45v-55.13h14.75l23.94,41.29h.26c-.38-7.16-.56-12.23-.56-15.2v-26.09h10.52v55.13Z"/><path class="cls-20" d="M1563.37,414.65v-8.67h32.43v8.67h-32.43Z"/><path class="cls-20" d="M1662.75,431.09l-4-13.12h-20.1l-4,13.12h-12.59l19.46-55.35h14.29l19.53,55.35h-12.59Zm-6.79-22.93c-3.7-11.89-5.78-18.61-6.24-20.18-.46-1.56-.8-2.79-1-3.69-.83,3.22-3.21,11.17-7.13,23.87h14.37Z"/><path class="cls-20" d="M1716.95,431.09h-11.5v-55.13h31.6v9.58h-20.1v14.22h18.71v9.54h-18.71v21.8Z"/><path class="cls-20" d="M1782.68,409.94v21.15h-11.69v-55.13h16.07c7.49,0,13.03,1.36,16.63,4.09,3.6,2.73,5.39,6.87,5.39,12.43,0,3.24-.89,6.13-2.68,8.65s-4.31,4.51-7.58,5.94c8.3,12.39,13.7,20.4,16.22,24.02h-12.97l-13.16-21.15h-6.22Zm0-9.5h3.77c3.69,0,6.42-.62,8.18-1.85s2.64-3.17,2.64-5.81-.9-4.48-2.7-5.58c-1.8-1.11-4.58-1.66-8.35-1.66h-3.55v14.9Z"/><path class="cls-20" d="M1845.15,431.09v-55.13h11.69v55.13h-11.69Z"/><path class="cls-20" d="M1917.3,384.9c-4.4,0-7.81,1.65-10.22,4.96-2.41,3.31-3.62,7.91-3.62,13.82,0,12.29,4.61,18.44,13.84,18.44,3.87,0,8.56-.97,14.06-2.9v9.8c-4.52,1.88-9.58,2.83-15.16,2.83-8.02,0-14.15-2.43-18.4-7.3-4.25-4.86-6.37-11.85-6.37-20.95,0-5.73,1.04-10.75,3.13-15.06s5.09-7.62,8.99-9.92c3.91-2.3,8.49-3.45,13.75-3.45s10.73,1.29,16.14,3.88l-3.77,9.5c-2.06-.98-4.14-1.84-6.22-2.56-2.09-.73-4.14-1.09-6.15-1.09Z"/><path class="cls-20" d="M2000.01,431.09l-4-13.12h-20.1l-4,13.12h-12.59l19.46-55.35h14.29l19.53,55.35h-12.59Zm-6.79-22.93c-3.7-11.89-5.78-18.61-6.24-20.18-.46-1.56-.8-2.79-1-3.69-.83,3.22-3.21,11.17-7.13,23.87h14.37Z"/></g><g><g><path class="cls-13" d="M159.59,283.79l-17.49-44.68h-56.3l-17.29,44.68h-16.53l55.53-141.05h13.74l55.25,141.05h-16.91Zm-22.58-59.38l-16.33-43.52c-2.11-5.51-4.29-12.27-6.53-20.27-1.41,6.15-3.43,12.91-6.05,20.27l-16.53,43.52h45.45Z"/><path class="cls-13" d="M178.42,285.1h-19.72l-17.49-44.68h-54.51l-17.29,44.68h-19.35l56.57-143.66h15.53l56.27,143.66Zm-17.94-2.62h14.1l-54.22-138.43h-11.96l-54.5,138.43h13.7l17.29-44.68h58.09l17.49,44.68Zm-21.58-56.76h-49.23l17.2-45.3c2.59-7.25,4.61-14.02,6-20.1l1.15-5.02,1.39,4.96c2.22,7.93,4.4,14.71,6.49,20.16l17,45.3Zm-45.44-2.62h41.66l-15.67-41.75c-1.69-4.4-3.44-9.66-5.22-15.67-1.3,4.88-2.94,10.12-4.91,15.65l-15.86,41.77Z"/></g><g><path class="cls-13" d="M241.66,283.79h-16.33V143.32h78.3v14.51h-61.97v51.4h58.22v14.51h-58.22v60.05Z"/><path class="cls-13" d="M242.97,285.1h-18.95V142.01h80.92v17.13h-61.97v48.78h58.22v17.13h-58.22v60.05Zm-16.33-2.62h13.71v-60.05h58.22v-11.89h-58.22v-54.02h61.97v-11.89h-75.68v137.85Z"/></g><g><path class="cls-13" d="M372.73,225.38v58.42h-16.33V143.32h38.53c17.23,0,29.96,3.3,38.19,9.9,8.23,6.6,12.35,16.53,12.35,29.78,0,18.58-9.42,31.13-28.25,37.66l38.14,63.12h-19.31l-34.01-58.42h-29.3Zm0-14.03h22.39c11.53,0,19.98-2.29,25.36-6.87,5.38-4.58,8.07-11.45,8.07-20.61s-2.74-15.98-8.22-20.08c-5.48-4.1-14.27-6.15-26.37-6.15h-21.23v53.71Z"/><path class="cls-13" d="M457.68,285.1h-22.39l-34.01-58.42h-27.24v58.42h-18.95V142.01h39.84c17.45,0,30.58,3.43,39.01,10.18,8.52,6.83,12.84,17.19,12.84,30.81,0,18.6-9.29,31.5-27.61,38.35l38.52,63.74Zm-20.88-2.62h16.24l-37.78-62.52,1.53-.53c18.42-6.39,27.37-18.3,27.37-36.43,0-12.78-3.99-22.46-11.85-28.76-7.96-6.37-20.53-9.61-37.37-9.61h-37.22v137.85h13.71v-58.42h31.37l34.01,58.42Zm-41.68-69.83h-23.7v-56.33h22.54c12.34,0,21.47,2.16,27.16,6.41,5.8,4.34,8.74,11.45,8.74,21.13s-2.87,16.79-8.53,21.61c-5.6,4.76-14.42,7.18-26.21,7.18Zm-21.08-2.62h21.08c11.16,0,19.4-2.21,24.52-6.56,5.05-4.3,7.61-10.9,7.61-19.61s-2.59-15.21-7.69-19.03c-5.22-3.91-13.83-5.89-25.59-5.89h-19.92v51.09Z"/></g><g><path class="cls-13" d="M585.85,283.79h-78.3V143.32h78.3v14.51h-61.97v45.25h58.22v14.41h-58.22v51.69h61.97v14.6Z"/><path class="cls-13" d="M587.16,285.1h-80.92V142.01h80.92v17.13h-61.97v42.63h58.22v17.03h-58.22v49.07h61.97v17.22Zm-78.3-2.62h75.68v-11.98h-61.97v-54.31h58.22v-11.79h-58.22v-47.87h61.97v-11.89h-75.68v137.85Z"/></g><g><path class="cls-13" d="M689.73,283.79h-16.33v-125.96h-44.49v-14.51h105.3v14.51h-44.49v125.96Z"/><path class="cls-13" d="M691.04,285.1h-18.95v-125.96h-44.49v-17.13h107.92v17.13h-44.49v125.96Zm-16.33-2.62h13.71v-125.96h44.49v-11.89h-102.69v11.89h44.49v125.96Z"/></g><g><path class="cls-13" d="M863.18,283.79h-78.3V143.32h78.3v14.51h-61.97v45.25h58.22v14.41h-58.22v51.69h61.97v14.6Z"/><path class="cls-13" d="M864.49,285.1h-80.92V142.01h80.92v17.13h-61.97v42.63h58.22v17.03h-58.22v49.07h61.97v17.22Zm-78.3-2.62h75.68v-11.98h-61.97v-54.31h58.22v-11.79h-58.22v-47.87h61.97v-11.89h-75.68v137.85Z"/></g><g><path class="cls-13" d="M983.97,155.91c-15.44,0-27.62,5.14-36.56,15.42-8.94,10.28-13.4,24.36-13.4,42.23s4.31,32.59,12.92,42.61c8.61,10.02,20.9,15.04,36.85,15.04,9.8,0,20.98-1.76,33.53-5.29v14.32c-9.74,3.65-21.75,5.48-36.03,5.48-20.69,0-36.65-6.28-47.9-18.83-11.24-12.55-16.86-30.39-16.86-53.52,0-14.47,2.71-27.16,8.12-38.05,5.41-10.89,13.23-19.28,23.44-25.17,10.22-5.89,22.24-8.84,36.08-8.84,14.73,0,27.61,2.69,38.62,8.07l-6.92,14.03c-10.63-5-21.27-7.49-31.9-7.49Z"/><path class="cls-13" d="M981.28,287.02c-20.98,0-37.42-6.48-48.87-19.27-11.41-12.74-17.2-31.04-17.2-54.39,0-14.61,2.78-27.61,8.26-38.63,5.5-11.07,13.56-19.73,23.96-25.72,10.37-5.98,22.73-9.01,36.73-9.01,14.87,0,28.05,2.76,39.2,8.2l1.18,.58-8.07,16.36-1.16-.55c-10.41-4.89-20.95-7.37-31.34-7.37-14.97,0-26.94,5.04-35.57,14.97-8.68,9.99-13.08,23.9-13.08,41.37s4.24,32.03,12.6,41.76c8.31,9.68,20.38,14.58,35.85,14.58,9.63,0,20.8-1.76,33.18-5.24l1.66-.47v16.95l-.85,.32c-9.84,3.69-22.12,5.56-36.49,5.56Zm2.88-144.41c-13.54,0-25.46,2.91-35.42,8.66-9.94,5.74-17.66,14.02-22.92,24.62-5.3,10.66-7.98,23.26-7.98,37.46,0,22.68,5.56,40.4,16.53,52.64,10.93,12.21,26.72,18.39,46.92,18.39,13.64,0,25.32-1.71,34.72-5.08v-11.68c-11.95,3.24-22.78,4.88-32.22,4.88-16.27,0-29.01-5.21-37.84-15.49-8.78-10.22-13.24-24.84-13.24-43.47s4.62-32.61,13.72-43.09c9.15-10.53,21.79-15.87,37.55-15.87,10.39,0,20.91,2.38,31.29,7.08l5.77-11.69c-10.53-4.89-22.93-7.37-36.86-7.37Z"/></g><g><path class="cls-13" d="M1267.83,283.79h-18.64l-76.76-117.89h-.77c1.02,13.84,1.53,26.52,1.53,38.05v79.84h-15.08V143.32h18.44l76.58,117.41h.76c-.12-1.73-.42-7.29-.86-16.67-.45-9.38-.61-16.09-.48-20.13v-80.61h15.28v140.47Z"/><path class="cls-13" d="M1269.14,285.1h-20.66l-.39-.6-74.86-114.98c.84,12.39,1.27,23.95,1.27,34.42v81.15h-17.7V142.01h20.46l.39,.59,74.72,114.57c-.15-2.88-.37-7.23-.65-13.05-.46-9.53-.61-16.15-.48-20.23v-81.88h17.9v143.09Zm-19.24-2.62h16.62V144.63h-12.66v79.3c-.13,4,.03,10.73,.48,20.07,.44,9.37,.73,14.91,.86,16.64l.1,1.4h-2.88l-.39-.59-76.19-116.82h-16.42v137.85h12.46v-78.53c0-11.44-.52-24.21-1.53-37.95l-.1-1.41h2.89l.39,.6,76.38,117.3Z"/></g><g><path class="cls-13" d="M1414.28,283.79h-78.31V143.32h78.31v14.51h-61.97v45.25h58.22v14.41h-58.22v51.69h61.97v14.6Z"/><path class="cls-13" d="M1415.59,285.1h-80.93V142.01h80.93v17.13h-61.97v42.63h58.22v17.03h-58.22v49.07h61.97v17.22Zm-78.31-2.62h75.69v-11.98h-61.97v-54.31h58.22v-11.79h-58.22v-47.87h61.97v-11.89h-75.69v137.85Z"/></g><g><path class="cls-13" d="M1518.16,283.79h-16.33v-125.96h-44.48v-14.51h105.3v14.51h-44.48v125.96Z"/><path class="cls-13" d="M1519.47,285.1h-18.95v-125.96h-44.48v-17.13h107.92v17.13h-44.48v125.96Zm-16.33-2.62h13.71v-125.96h44.48v-11.89h-102.68v11.89h44.48v125.96Z"/></g><g><path class="cls-13" d="M1735.89,283.79h-16.14l-28.34-94.06c-1.34-4.16-2.85-9.42-4.52-15.76-1.66-6.34-2.53-10.15-2.59-11.43-1.41,8.46-3.65,17.71-6.73,27.77l-27.48,93.49h-16.14l-37.37-140.47h17.29l22.19,86.76c3.07,12.17,5.32,23.19,6.73,33.05,1.73-11.72,4.29-23.19,7.68-34.4l25.18-85.41h17.29l26.42,86.18c3.07,9.93,5.67,21.14,7.78,33.63,1.22-9.09,3.52-20.18,6.92-33.24l22.1-86.57h17.3l-37.57,140.47Z"/><path class="cls-13" d="M1736.9,285.1h-18.12l-.28-.93-28.34-94.06c-1.33-4.12-2.85-9.45-4.53-15.8-.52-1.97-.93-3.6-1.27-4.96-1.38,6.66-3.23,13.82-5.53,21.35l-27.75,94.41h-18.13l-38.07-143.09h20.01l22.45,87.75c2.27,9,4.11,17.44,5.47,25.21,1.64-9.02,3.79-17.94,6.41-26.61l25.45-86.34h19.24l26.71,87.11c2.44,7.88,4.6,16.65,6.44,26.15,1.33-7.51,3.25-16.12,5.74-25.71l22.35-87.55h20.02l-38.27,143.09Zm-16.18-2.62h14.17l36.87-137.85h-14.57l-21.85,85.58c-3.37,12.96-5.68,24.09-6.89,33.09l-1.15,8.57-1.44-8.53c-2.09-12.36-4.69-23.61-7.74-33.46l-26.14-85.26h-15.35l-24.9,84.47c-3.36,11.11-5.93,22.61-7.64,34.22l-1.32,8.92-1.28-8.93c-1.39-9.75-3.65-20.82-6.7-32.92l-21.94-85.77h-14.57l36.67,137.85h14.16l27.2-92.55c3.05-9.98,5.3-19.27,6.69-27.61l2.02-12.09,.59,12.24c.04,.81,.51,3.4,2.55,11.17,1.66,6.31,3.17,11.59,4.5,15.69l28.07,93.16Z"/></g><g><path class="cls-13" d="M1946.9,213.36c0,22.48-5.68,40.16-17.05,53.04-11.37,12.87-27.17,19.31-47.41,19.31s-36.65-6.33-47.9-18.98c-11.24-12.65-16.86-30.5-16.86-53.56s5.63-40.59,16.91-53.18c11.27-12.59,27.29-18.88,48.04-18.88s35.94,6.41,47.27,19.22c11.33,12.81,17,30.49,17,53.04Zm-111.93,0c0,19.02,4.05,33.45,12.15,43.29,8.1,9.83,19.87,14.75,35.31,14.75s27.32-4.9,35.26-14.7c7.94-9.8,11.91-24.24,11.91-43.33s-3.96-33.23-11.87-43c-7.91-9.77-19.62-14.65-35.12-14.65s-27.4,4.92-35.5,14.75c-8.1,9.83-12.15,24.13-12.15,42.9Z"/><path class="cls-13" d="M1882.43,287.02c-20.98,0-37.42-6.53-48.87-19.42-11.41-12.84-17.19-31.15-17.19-54.43s5.8-41.28,17.25-54.06c11.48-12.82,27.97-19.32,49.01-19.32s36.71,6.61,48.26,19.66c11.5,13,17.33,31.13,17.33,53.9s-5.85,40.85-17.38,53.9c-11.58,13.11-27.86,19.76-48.4,19.76Zm.19-144.6c-20.27,0-36.1,6.2-47.06,18.44-11,12.28-16.58,29.88-16.58,52.31s5.56,40.35,16.53,52.69c10.93,12.3,26.71,18.54,46.92,18.54s35.38-6.35,46.43-18.87c11.1-12.57,16.73-30.12,16.73-52.17s-5.61-39.66-16.68-52.17c-11.02-12.46-26.6-18.77-46.29-18.77Zm-.19,130.28c-15.78,0-28-5.12-36.32-15.22-8.26-10.02-12.45-24.87-12.45-44.12s4.19-33.71,12.45-43.73c8.32-10.1,20.61-15.23,36.51-15.23s28,5.09,36.13,15.14c8.07,9.96,12.16,24.71,12.16,43.82s-4.11,34.16-12.21,44.16c-8.17,10.08-20.37,15.19-36.28,15.19Zm.19-115.68c-15.08,0-26.69,4.8-34.49,14.27-7.87,9.55-11.85,23.7-11.85,42.07s3.99,32.91,11.85,42.45c7.8,9.47,19.34,14.27,34.3,14.27s26.6-4.78,34.24-14.21c7.71-9.52,11.62-23.82,11.62-42.51s-3.9-32.69-11.57-42.17c-7.61-9.4-19.09-14.17-34.1-14.17Z"/></g><g><path class="cls-13" d="M2024.08,225.38v58.42h-16.33V143.32h38.53c17.23,0,29.96,3.3,38.19,9.9,8.23,6.6,12.35,16.53,12.35,29.78,0,18.58-9.42,31.13-28.25,37.66l38.14,63.12h-19.31l-34.01-58.42h-29.3Zm0-14.03h22.39c11.53,0,19.98-2.29,25.37-6.87,5.38-4.58,8.07-11.45,8.07-20.61s-2.74-15.98-8.22-20.08c-5.47-4.1-14.27-6.15-26.37-6.15h-21.23v53.71Z"/><path class="cls-13" d="M2109.03,285.1h-22.39l-34.01-58.42h-27.24v58.42h-18.95V142.01h39.84c17.45,0,30.58,3.43,39.01,10.18,8.52,6.83,12.84,17.19,12.84,30.81,0,18.6-9.29,31.5-27.61,38.35l38.52,63.74Zm-20.88-2.62h16.24l-37.78-62.52,1.53-.53c18.42-6.39,27.37-18.3,27.37-36.43,0-12.78-3.99-22.45-11.86-28.76-7.95-6.37-20.53-9.61-37.37-9.61h-37.22v137.85h13.71v-58.42h31.37l34.01,58.42Zm-41.68-69.83h-23.7v-56.33h22.54c12.34,0,21.47,2.16,27.16,6.41,5.8,4.34,8.74,11.45,8.74,21.13s-2.87,16.79-8.53,21.61c-5.6,4.76-14.42,7.18-26.22,7.18Zm-21.08-2.62h21.08c11.16,0,19.4-2.21,24.52-6.56,5.05-4.3,7.61-10.9,7.61-19.61s-2.59-15.21-7.69-19.03c-5.22-3.91-13.83-5.89-25.59-5.89h-19.92v51.09Z"/></g><g><path class="cls-13" d="M2260.35,283.79h-19.21l-51.21-68.12-14.7,13.07v55.05h-16.33V143.32h16.33v69.66l63.7-69.66h19.31l-56.5,61.01,58.61,79.46Z"/><path class="cls-13" d="M2262.94,285.1h-22.46l-50.75-67.51-13.2,11.73v55.78h-18.95V142.01h18.95v67.59l61.81-67.59h22.89l-57.8,62.41,59.5,80.67Zm-21.15-2.62h15.97l-57.71-78.24,55.2-59.6h-15.74l-65.59,71.72v-71.72h-13.71v137.85h13.71v-54.33l16.2-14.4,51.67,68.74Z"/></g></g></g></svg>